<?xml version="1.0" standalone="no"?>
<!DOCTYPE svg PUBLIC "-//W3C//DTD SVG 20010904//EN"
 "http://www.w3.org/TR/2001/REC-SVG-20010904/DTD/svg10.dtd">
<svg version="1.0" xmlns="http://www.w3.org/2000/svg"
 width="240.000000pt" height="289.000000pt" viewBox="0 0 240.000000 289.000000"
 preserveAspectRatio="xMidYMid meet">

<g transform="translate(0.000000,289.000000) scale(0.100000,-0.100000)"
fill="#000000" stroke="none">
<path d="M543 2129 c-55 -10 -95 -32 -138 -74 -117 -118 -116 -325 2 -438 l29
-27 18 36 17 37 -32 33 c-62 64 -68 189 -12 268 68 96 202 107 283 23 l24 -25
38 25 c21 14 38 29 38 33 0 14 -82 82 -114 95 -45 18 -105 24 -153 14z"/>
<path d="M1758 2126 c-56 -15 -121 -56 -144 -91 -9 -14 -15 -27 -13 -29 50
-37 68 -45 76 -33 4 7 22 24 39 36 104 76 250 21 288 -108 23 -77 5 -153 -51
-212 -24 -26 -24 -27 -7 -63 10 -20 21 -36 25 -36 20 0 68 54 94 106 39 78 42
191 7 270 -55 122 -193 192 -314 160z"/>
<path d="M629 1715 c-66 -21 -138 -72 -180 -129 -105 -140 -88 -350 38 -472
109 -107 260 -130 395 -63 84 42 156 132 180 224 7 28 17 53 23 57 5 4 57 8
115 8 58 0 110 -4 116 -8 6 -4 14 -21 17 -39 19 -99 97 -197 194 -245 57 -28
75 -32 147 -32 101 0 169 28 240 100 67 66 98 138 104 235 15 253 -209 432
-449 359 -63 -19 -81 -30 -134 -83 -61 -62 -105 -145 -105 -200 0 -22 -3 -22
-130 -22 -127 0 -130 0 -130 22 0 85 -99 222 -195 268 -67 33 -178 42 -246 20z
m227 -40 c71 -31 128 -86 161 -153 24 -50 28 -69 28 -148 0 -84 -3 -96 -35
-160 -61 -120 -169 -181 -304 -172 -136 9 -243 94 -286 228 -88 274 178 521
436 405z m950 0 c199 -89 255 -361 108 -524 -63 -70 -130 -103 -220 -109 -135
-9 -243 52 -304 172 -32 64 -35 76 -35 160 0 81 4 98 30 149 79 159 261 224
421 152z"/>
<path d="M715 1561 c-48 -12 -84 -40 -113 -90 -51 -88 -30 -199 52 -265 33
-27 45 -31 101 -31 70 0 96 14 147 77 38 47 48 128 24 192 -21 54 -71 101
-123 115 -42 12 -45 12 -88 2z m130 -87 c48 -19 48 -118 0 -130 -40 -10 -72 3
-82 33 -13 39 -2 76 27 90 29 15 33 15 55 7z m-74 -165 c16 -30 -3 -69 -34
-69 -29 0 -47 17 -47 45 0 45 60 63 81 24z"/>
<path d="M1616 1555 c-78 -28 -126 -98 -126 -186 0 -102 66 -184 158 -196 127
-17 230 105 201 237 -14 64 -47 107 -103 135 -57 28 -75 30 -130 10z m159
-100 c46 -45 22 -115 -40 -115 -63 0 -89 80 -39 119 34 27 50 26 79 -4z m-97
-137 c7 -7 12 -21 12 -33 0 -44 -60 -63 -80 -26 -14 27 -13 37 6 55 18 19 45
21 62 4z"/>
<path d="M1136 1219 c-15 -12 -26 -30 -26 -44 0 -26 42 -65 71 -65 16 0 19 -8
19 -50 0 -50 0 -50 -27 -44 -16 4 -35 13 -44 20 -20 18 -29 18 -29 1 0 -20 65
-47 111 -47 43 0 102 21 114 40 12 19 -2 23 -27 7 -12 -8 -33 -18 -45 -22 -22
-6 -23 -4 -23 43 0 47 2 50 30 55 35 8 62 44 53 75 -13 51 -126 71 -177 31z
m39 -8 c7 -12 -12 -24 -25 -16 -11 7 -4 25 10 25 5 0 11 -4 15 -9z"/>
</g>
</svg>
